<svg width="32" height="32" viewBox="0 0 32 32" fill="none" xmlns="http://www.w3.org/2000/svg">
<path d="M16 32C12.8355 32 9.74207 31.0616 7.11088 29.3035C4.4797 27.5454 2.42894 25.0466 1.21793 22.1229C0.00693251 19.1993 -0.309921 15.9823 0.307443 12.8786C0.924806 9.77486 2.44866 6.92394 4.6863 4.6863C6.92394 2.44866 9.77486 0.924806 12.8786 0.307443C15.9823 -0.309921 19.1993 0.00693251 22.1229 1.21793C25.0466 2.42894 27.5454 4.4797 29.3035 7.11088C31.0616 9.74207 32 12.8355 32 16C32 20.2435 30.3143 24.3131 27.3137 27.3137C24.3131 30.3143 20.2435 32 16 32ZM16 0.780495C12.9899 0.780495 10.0473 1.6731 7.5445 3.34544C5.04166 5.01778 3.09094 7.39475 1.93901 10.1757C0.787082 12.9567 0.485685 16.0169 1.07293 18.9692C1.66018 21.9215 3.1097 24.6333 5.23818 26.7618C7.36667 28.8903 10.0785 30.3398 13.0308 30.9271C15.9831 31.5143 19.0433 31.2129 21.8243 30.061C24.6053 28.9091 26.9822 26.9583 28.6546 24.4555C30.3269 21.9527 31.2195 19.0101 31.2195 16C31.2195 11.9635 29.616 8.0924 26.7618 5.23818C23.9076 2.38397 20.0365 0.780495 16 0.780495Z" fill="white"/>
<path d="M20.2927 8.97559H11.7073C10.9828 8.97559 10.288 9.26339 9.77568 9.77568C9.26339 10.288 8.97559 10.9828 8.97559 11.7073V20.2927C8.97559 20.6514 9.04624 21.0066 9.18352 21.338C9.32081 21.6695 9.52202 21.9706 9.77568 22.2243C10.0293 22.4779 10.3305 22.6791 10.6619 22.8164C10.9933 22.9537 11.3486 23.0244 11.7073 23.0244H20.2927C20.6514 23.0244 21.0066 22.9537 21.338 22.8164C21.6695 22.6791 21.9706 22.4779 22.2243 22.2243C22.4779 21.9706 22.6791 21.6695 22.8164 21.338C22.9537 21.0066 23.0244 20.6514 23.0244 20.2927V11.7073C23.0244 11.3486 22.9537 10.9933 22.8164 10.6619C22.6791 10.3305 22.4779 10.0293 22.2243 9.77568C21.9706 9.52202 21.6695 9.32081 21.338 9.18352C21.0066 9.04624 20.6514 8.97559 20.2927 8.97559ZM21.0731 10.5951H21.3814V12.9756H19.0088V10.5951H21.0731ZM13.998 14.56C14.3426 14.0839 14.8458 13.7464 15.4171 13.6085C15.9883 13.4705 16.5901 13.5411 17.114 13.8075C17.6378 14.0738 18.0493 14.5185 18.2744 15.0614C18.4995 15.6043 18.5232 16.2097 18.3415 16.7686C18.1597 17.3275 17.7844 17.8031 17.2831 18.1098C16.7817 18.4165 16.1873 18.5341 15.607 18.4413C15.0267 18.3486 14.4985 18.0518 14.1177 17.6042C13.7368 17.1566 13.5283 16.5877 13.5297 16C13.5312 15.4828 13.695 14.9791 13.998 14.56ZM21.6585 20.2927C21.6601 20.4721 21.6258 20.65 21.5576 20.816C21.4894 20.982 21.3887 21.1327 21.2615 21.2592C21.1342 21.3858 20.983 21.4856 20.8166 21.5528C20.6502 21.62 20.4721 21.6533 20.2927 21.6507H11.7073C11.5282 21.6528 11.3505 21.6191 11.1845 21.5517C11.0186 21.4842 10.8678 21.3843 10.741 21.2578C10.6142 21.1314 10.5138 20.9808 10.4459 20.8151C10.378 20.6494 10.3438 20.4718 10.3453 20.2927V14.56H12.4409C12.2048 15.1429 12.1154 15.7749 12.1807 16.4005C12.246 17.0261 12.464 17.626 12.8155 18.1476C13.1669 18.6692 13.6411 19.0965 14.1964 19.3919C14.7517 19.6873 15.371 19.8418 16 19.8418C16.6289 19.8418 17.2483 19.6873 17.8035 19.3919C18.3588 19.0965 18.833 18.6692 19.1845 18.1476C19.536 17.626 19.7539 17.0261 19.8192 16.4005C19.8845 15.7749 19.7952 15.1429 19.559 14.56H21.6585V20.2927Z" fill="white"/>
</svg>
