<svg width="32" height="32" viewBox="0 0 32 32" fill="none" xmlns="http://www.w3.org/2000/svg">
<path d="M16 32C12.8355 32 9.74207 31.0616 7.11088 29.3035C4.4797 27.5454 2.42894 25.0466 1.21793 22.1229C0.00693251 19.1993 -0.309921 15.9823 0.307443 12.8786C0.924806 9.77486 2.44866 6.92394 4.6863 4.6863C6.92394 2.44866 9.77486 0.924806 12.8786 0.307443C15.9823 -0.309921 19.1993 0.00693251 22.1229 1.21793C25.0466 2.42894 27.5454 4.4797 29.3035 7.11088C31.0616 9.74207 32 12.8355 32 16C32 20.2435 30.3143 24.3131 27.3137 27.3137C24.3131 30.3143 20.2435 32 16 32ZM16 0.780495C12.9899 0.780495 10.0473 1.6731 7.5445 3.34544C5.04166 5.01778 3.09094 7.39475 1.93901 10.1757C0.787082 12.9567 0.485685 16.0169 1.07293 18.9692C1.66018 21.9215 3.1097 24.6333 5.23818 26.7618C7.36667 28.8903 10.0785 30.3398 13.0308 30.9271C15.9831 31.5143 19.0433 31.2129 21.8243 30.061C24.6053 28.9091 26.9822 26.9583 28.6546 24.4555C30.3269 21.9527 31.2195 19.0101 31.2195 16C31.2195 11.9635 29.616 8.0924 26.7618 5.23818C23.9076 2.38397 20.0365 0.780495 16 0.780495Z" fill="white"/>
<path d="M12.6128 13.6194H14.0489V12.2106C14.0489 11.5863 14.0489 10.6263 14.5172 10.0331C14.7742 9.67979 15.1167 9.39746 15.5126 9.21251C15.9084 9.02756 16.3447 8.94602 16.7806 8.97552C17.6563 8.93719 18.5329 9.02525 19.3835 9.23699L19.0206 11.3872C18.6389 11.2815 18.2458 11.2226 17.8499 11.2116C17.284 11.2116 16.7806 11.4145 16.7806 11.9921V13.6194H19.0986L18.9386 15.7228H16.7806V23.0243H14.0489V15.7228H12.6128V13.6194Z" fill="white"/>
</svg>
