<svg width="48" height="48" viewBox="0 0 48 48" fill="none" xmlns="http://www.w3.org/2000/svg">
<path d="M29.0041 17.8147L33.2435 11.1429L29.3516 6H18.7184L14.6875 11.1429L19.4828 17.6062C14.757 19.4131 11.3516 24 11.3516 29.3513C11.3516 36.3012 17.0504 42 24.0002 42C30.95 42 36.6489 36.3012 36.6489 29.3513C36.6489 24.2085 33.4519 19.7606 29.0041 17.8147ZM24.0002 12.3938L28.3091 16.2857L28.1006 16.6332H20.4558L20.1083 16.2162L24.0002 12.3938ZM19.3438 15.1042L16.9809 11.8378H22.6103L19.3438 15.1042ZM25.4597 11.8378H31.1585L29.1431 15.1042L25.4597 11.8378ZM19.4133 7.38996H28.7261L31.0195 10.4479H16.9809L19.4133 7.38996ZM24.0002 40.61C17.8149 40.61 12.7415 35.5367 12.7415 29.3513C12.7415 23.166 17.8149 18.0927 24.0002 18.0927C30.1855 18.0927 35.2589 23.166 35.2589 29.3513C35.2589 35.5367 30.1855 40.61 24.0002 40.61Z" fill="black"/>
</svg>
