<svg width="48" height="48" viewBox="0 0 48 48" fill="none" xmlns="http://www.w3.org/2000/svg">
<path d="M29.7783 11.8341C29.0595 11.8341 28.3406 11.8894 27.6217 12C26.9581 11.8894 26.2392 11.8341 25.5203 11.8341C24.8014 11.8341 24.0825 11.8894 23.3636 12C22.6447 11.8894 21.9811 11.8341 21.2069 11.8341C14.5157 11.8341 9.04102 17.3088 9.04102 24C9.04102 30.6913 14.5157 36.1659 21.2069 36.1659C21.9258 36.1659 22.6447 36.1106 23.3636 36C24.0825 36.1106 24.7461 36.1659 25.5203 36.1659C26.2945 36.1659 26.9581 36.1106 27.677 36C28.3959 36.1106 29.0595 36.1659 29.8336 36.1659C36.5249 36.1659 41.9995 30.6913 41.9995 24C41.9995 17.3088 36.4696 11.8341 29.7783 11.8341ZM27.6217 34.8387C27.4005 34.7834 27.2346 34.7281 27.0134 34.6728C30.829 32.6267 33.4281 28.5899 33.4281 23.9447C33.4281 19.2995 30.829 15.3733 27.0134 13.2719C27.2346 13.2166 27.4005 13.1613 27.6217 13.106C32.7092 14.1014 36.5802 18.5807 36.5802 23.9447C36.5802 29.3088 32.7092 33.8433 27.6217 34.8387ZM14.4051 24C14.4051 18.636 18.276 14.1567 23.3636 13.1613C23.5848 13.2166 23.7507 13.2719 23.9719 13.3272C20.1562 15.3733 17.6124 19.4101 17.6124 24C17.6124 28.5899 20.2115 32.6267 24.0272 34.7281C23.806 34.7834 23.6401 34.8387 23.4189 34.894C18.276 33.8433 14.4051 29.3641 14.4051 24ZM25.5203 13.7696C29.5018 15.4286 32.3221 19.4101 32.3221 24C32.3221 28.5899 29.5018 32.5161 25.5203 34.2304C21.4834 32.5714 18.7184 28.5899 18.7184 24C18.7184 19.4101 21.4834 15.4839 25.5203 13.7696ZM10.147 24C10.147 18.1936 14.6263 13.4378 20.3221 12.9954C16.1747 14.9309 13.2991 19.1336 13.2991 24C13.2991 28.8664 16.1747 33.0691 20.3221 35.0046C14.6263 34.5622 10.147 29.8065 10.147 24ZM30.6631 35.0046C34.8106 33.0691 37.6862 28.8664 37.6862 24C37.6862 19.1336 34.8106 14.9309 30.6631 12.9954C36.359 13.4378 40.8383 18.1936 40.8383 24C40.8383 29.8065 36.359 34.5622 30.6631 35.0046Z" fill="black"/>
<path d="M9.39622 18.4342L6.77637 21.0541L9.39622 23.6739L12.0161 21.0541L9.39622 18.4342Z" fill="#CFDCE6"/>
<path d="M9.42857 24.4423L6 21.0691L9.42857 17.6405L12.8571 21.0691L9.42857 24.4423ZM7.54839 21.0691L9.42857 22.894L11.2535 21.0691L9.42857 19.2442L7.54839 21.0691Z" fill="black"/>
<path d="M15.0137 30.7465C16.2354 30.7465 17.2257 29.7561 17.2257 28.5345C17.2257 27.3128 16.2354 26.3225 15.0137 26.3225C13.7921 26.3225 12.8018 27.3128 12.8018 28.5345C12.8018 29.7561 13.7921 30.7465 15.0137 30.7465Z" fill="#CFDCE6"/>
<path d="M15.014 31.2442C13.5209 31.2442 12.249 30.0276 12.249 28.4792C12.249 26.9861 13.4656 25.7142 15.014 25.7142C16.5071 25.7142 17.779 26.9308 17.779 28.4792C17.779 30.0276 16.5071 31.2442 15.014 31.2442ZM15.014 26.8755C14.1292 26.8755 13.355 27.5944 13.355 28.5345C13.355 29.4193 14.0739 30.1935 15.014 30.1935C15.8988 30.1935 16.673 29.4746 16.673 28.5345C16.673 27.5944 15.8988 26.8755 15.014 26.8755Z" fill="black"/>
<path d="M19.3829 22.8388C20.6045 22.8388 21.5949 21.8484 21.5949 20.6268C21.5949 19.4051 20.6045 18.4148 19.3829 18.4148C18.1612 18.4148 17.1709 19.4051 17.1709 20.6268C17.1709 21.8484 18.1612 22.8388 19.3829 22.8388Z" fill="#CFDCE6"/>
<path d="M19.3822 23.3918C17.8891 23.3918 16.6172 22.1752 16.6172 20.6268C16.6172 19.0784 17.8338 17.8618 19.3822 17.8618C20.9306 17.8618 22.1471 19.0784 22.1471 20.6268C22.1471 22.1752 20.9306 23.3918 19.3822 23.3918ZM19.3822 18.9678C18.4974 18.9678 17.7232 19.6867 17.7232 20.6268C17.7232 21.5669 18.4421 22.2858 19.3822 22.2858C20.3223 22.2858 21.0412 21.5669 21.0412 20.6268C21.0412 19.6867 20.3223 18.9678 19.3822 18.9678Z" fill="black"/>
</svg>
