<svg width="48" height="48" viewBox="0 0 48 48" fill="none" xmlns="http://www.w3.org/2000/svg">
<path d="M29.541 18.5476C27.5436 18.5476 25.6752 19.063 24 19.9651C22.3249 19.063 20.4564 18.5476 18.4591 18.5476C12.0161 18.5476 6.73291 23.8308 6.73291 30.2738C6.73291 36.7167 12.0161 42 18.4591 42C20.4564 42 22.3249 41.4845 24 40.5825C25.6752 41.4845 27.5436 42 29.541 42C35.9839 42 41.2671 36.7167 41.2671 30.2738C41.2671 23.8308 35.9839 18.5476 29.541 18.5476ZM18.4591 40.7114C12.7249 40.7114 8.0215 36.008 8.0215 30.2738C8.0215 24.5396 12.7249 19.8362 18.4591 19.8362C20.0054 19.8362 21.4228 20.1583 22.7114 20.7382C19.7477 22.8644 17.8148 26.3436 17.8148 30.2738C17.8148 34.204 19.7477 37.6832 22.7114 39.8094C21.4228 40.3892 19.941 40.7114 18.4591 40.7114ZM24 21.4469C26.8994 23.3154 28.8967 26.5369 28.8967 30.2738C28.8967 34.0107 26.9638 37.2322 24 39.1006C21.1007 37.2322 19.1034 34.0107 19.1034 30.2738C19.1034 26.5369 21.0363 23.3154 24 21.4469ZM29.541 40.7114C27.9947 40.7114 26.5772 40.3892 25.2886 39.8094C28.2524 37.6832 30.1853 34.204 30.1853 30.2738C30.1853 26.3436 28.2524 22.8644 25.2886 20.7382C26.5772 20.1583 27.9947 19.8362 29.541 19.8362C35.2752 19.8362 39.9785 24.5396 39.9785 30.2738C39.9785 36.008 35.2752 40.7114 29.541 40.7114Z" fill="black"/>
<path d="M21.8738 13.0711L24 15.004L28.6389 10.7517C29.7342 9.65638 29.7342 7.91678 28.6389 6.82148C27.5436 5.72617 25.804 5.72617 24.7087 6.82148L24 7.5302L23.2912 6.82148C22.1959 5.72617 20.4563 5.72617 19.361 6.82148C18.2657 7.91678 18.2657 9.65638 19.361 10.7517L21.8738 13.0711ZM20.263 7.72349C20.5208 7.40134 20.9073 7.27248 21.2939 7.27248C21.6805 7.27248 22.0671 7.40134 22.3248 7.72349L23.9355 9.33423L25.5463 7.72349C26.1261 7.14362 27.0926 7.14362 27.6724 7.72349C28.2523 8.30336 28.2523 9.2698 27.6724 9.84966L23.9355 13.3289L22.7114 12.2336L20.263 9.84966C19.6832 9.2698 19.6832 8.30336 20.263 7.72349Z" fill="black"/>
</svg>
