<svg width="399" height="24" viewBox="0 0 399 24" fill="none" xmlns="http://www.w3.org/2000/svg">
<g clip-path="url(#clip0)">
<path d="M230.425 6.33526L231.308 4.9235C231.061 4.49115 228.553 0.132324 221.938 0.132324C214.943 0.132324 210.862 5.48821 210.862 12.0706C210.862 18.6529 214.943 24 221.938 24C228.456 24 230.999 19.8088 231.273 19.2441L230.769 18.6706C223.616 27.2559 214.404 20.5853 214.404 12.0706C214.404 3.55585 223.245 -2.2765 230.425 6.33526Z" fill="white"/>
<path d="M244.874 0.0263672H235.689V1.96754H244.874V23.9999H249.025V1.96754H258.219V0.0263672H249.025H244.874Z" fill="white"/>
<path d="M9.1852 0.0263672H0V1.96754H9.1852V23.9999H13.345V1.96754H22.5302V0.0263672H13.345H9.1852Z" fill="white"/>
<path d="M46.1644 11.3028H31.945V0.0263672H27.7852V11.3028V12.7323V23.9999H31.945V12.7323H46.1644V23.9999H50.3242V12.7323V11.3028V0.0263672H46.1644V11.3028Z" fill="white"/>
<path d="M61.6027 6.96166V1.66754H72.7839V0.0263672H57.3457V3.97931V23.9999H72.7839V22.3675H61.6027V16.3499H61.5939V12.4675H70.885V11.144H61.5939V6.96166H61.6027Z" fill="white"/>
<path d="M105.1 0.0441895C104.437 0.0441895 103.802 0.0441895 103.245 0.0441895H99.1118V24.0001H103.333V22.3765V16.3501V13.4207C107.211 13.4207 114.373 13.4824 114.373 6.74125C114.373 1.03242 109.057 0.176542 105.1 0.0441895ZM105.559 11.7177H103.333V6.96184V1.66772H105.541C105.541 1.66772 110.134 1.66772 110.134 6.75007C110.134 11.8324 106.866 11.7177 105.55 11.7177H105.559Z" fill="white"/>
<path d="M124.724 7.3146V6.96166V1.66754H135.906V0.0263672H120.458V3.97931V23.9999H135.906V22.3675H124.724V16.7117V16.3499H124.715V12.1499H134.007V10.8264H124.715V7.3146H124.724Z" fill="white"/>
<path d="M184.119 0.0263672H168.672V3.97931V23.9999H172.938V15.9881V12.4675V12.1499H180.092V10.8264H172.938V10.5087V9.60872V1.66754H184.119V0.0263672Z" fill="white"/>
<path d="M194.4 6.96166V1.66754H205.572V0.0263672H190.134V3.97931V23.9999H205.572V22.3675H194.4V16.3499H194.382V12.4675H203.673V11.144H194.382V6.96166H194.4Z" fill="white"/>
<path d="M160.741 21.2294L152.209 12.9882L153.199 12.8559C155.751 12.1412 158.012 10.4118 158.012 6.74118C157.986 0.0617644 150.699 0 146.831 0H142.75V24H146.928V13.4118H146.981L154.559 20.7529L157.835 23.9912H163.611L160.741 21.2294ZM151.909 11.1618C151.089 11.5731 150.176 11.7647 149.26 11.7176H147.025V1.69412H149.26C149.26 1.69412 153.852 1.69412 153.852 6.77647C153.852 9.32647 153.031 10.5794 152.015 11.1882L151.909 11.1618Z" fill="white"/>
<path d="M370.243 6.29115L371.126 4.87938C370.87 4.41173 368.362 0.0705566 361.729 0.0705566C354.717 0.0705566 350.627 5.44409 350.627 12.0353C350.627 18.6264 354.717 24 361.729 24C368.265 24 370.808 19.7911 371.091 19.2264L370.579 18.6617C363.416 27.2647 354.16 20.5764 354.16 12.0353C354.16 3.49409 363.045 -2.34709 370.243 6.29115Z" fill="white"/>
<path d="M321.562 0.0263672H312.368H308.217H299.022V1.96754H308.217V23.9999H312.368V1.96754H321.562V0.0263672Z" fill="white"/>
<path d="M293.326 11.9206C292.787 11.5764 291.657 10.95 289.793 9.97055C288.001 9.14643 286.346 8.0545 284.883 6.73232C284.453 6.24519 284.217 5.61711 284.22 4.96761C284.218 4.51627 284.326 4.07116 284.535 3.67122C284.745 3.27129 285.049 2.92872 285.421 2.67349C285.822 2.33899 286.288 2.09247 286.79 1.94996C287.179 1.86173 291.992 0.926433 293.388 5.62937L295.084 4.74702C295.084 4.74702 294.518 0.114669 288.018 -0.0529785H287.682H287.188H287.117C285.647 0.0701365 284.249 0.636276 283.107 1.57055C282.413 2.11545 281.859 2.81702 281.489 3.61768C281.119 4.41834 280.944 5.29525 280.979 6.17643C280.995 7.14146 281.245 8.08827 281.706 8.93629C282.167 9.78431 282.827 10.5084 283.629 11.047C284.879 11.957 286.206 12.7571 287.594 13.4382C288.927 14.1214 290.217 14.8876 291.454 15.7323C291.972 16.0595 292.404 16.5073 292.711 17.0374C293.019 17.5676 293.194 18.1642 293.22 18.7764C293.232 19.2749 293.117 19.7684 292.885 20.21C292.654 20.6516 292.313 21.0268 291.895 21.3C291.02 21.9057 289.974 22.215 288.91 22.1823C287.782 22.1923 286.667 21.9321 285.66 21.4235C284.664 20.9381 283.841 20.1589 283.302 19.1911C283.024 18.6401 282.853 18.0412 282.798 17.4264H281.226C281.343 18.6385 281.752 19.8042 282.419 20.8235C283.059 21.8187 283.948 22.6306 284.998 23.1794C285.764 23.5479 286.583 23.7922 287.426 23.9029C288.031 23.9957 288.643 24.037 289.255 24.0264C291.138 24.0603 292.975 23.4362 294.448 22.2617C295.181 21.7035 295.772 20.9802 296.172 20.1507C296.573 19.3212 296.772 18.409 296.753 17.4882C296.749 16.5653 296.522 15.657 296.09 14.8411C295.425 13.6541 294.475 12.6506 293.326 11.9206Z" fill="white"/>
<path d="M320.997 24H322.86H322.683L325.377 19.1735H341.478L344.498 24.0353H349.003L334.819 0L320.997 24ZM326.119 17.8235L332.982 5.47059L340.639 17.8235H326.119Z" fill="white"/>
<path d="M393.886 19.094L384.966 10.4734L395.688 0.0263672H392.871L381.751 10.8352V0.0263672H377.477H377.265V23.9999H377.494H381.751V12.8293L389.956 20.7617L393.224 23.9999H399L393.886 19.094Z" fill="white"/>
</g>
<defs>
<clipPath id="clip0">
<path d="M0 0H399V24H0V0Z" fill="white"/>
</clipPath>
</defs>
</svg>
