<svg width="452" height="28" viewBox="0 0 452 28" fill="none" xmlns="http://www.w3.org/2000/svg">
<g clip-path="url(#clip0)">
<path d="M260.9 7.18001L261.9 5.58001C261.62 5.09001 258.78 0.150009 251.29 0.150009C243.37 0.150009 238.75 6.22001 238.75 13.68C238.75 21.14 243.37 27.2 251.29 27.2C258.67 27.2 261.55 22.45 261.86 21.81L261.29 21.16C253.19 30.89 242.76 23.33 242.76 13.68C242.76 4.03001 252.77 -2.57999 260.9 7.18001Z" fill="black"/>
<path d="M277.26 0.0299988H266.86V2.23H277.26V27.2H281.96V2.23H292.37V0.0299988H281.96H277.26Z" fill="black"/>
<path d="M10.4 0.0299988H0V2.23H10.4V27.2H15.11V2.23H25.51V0.0299988H15.11H10.4Z" fill="black"/>
<path d="M52.27 12.81H36.17V0.0299988H31.46V12.81V14.43V27.2H36.17V14.43H52.27V27.2H56.98V14.43V12.81V0.0299988H52.27V12.81Z" fill="black"/>
<path d="M69.75 7.89V1.89H82.41V0.0299988H64.93V4.51V27.2H82.41V25.35H69.75V18.53H69.74V14.13H80.26V12.63H69.74V7.89H69.75Z" fill="black"/>
<path d="M119 0.0500031C118.25 0.0500031 117.53 0.0500031 116.9 0.0500031H112.22V27.2H117V25.36V18.53V15.21C121.39 15.21 129.5 15.28 129.5 7.64C129.5 1.17 123.48 0.200003 119 0.0500031ZM119.52 13.28H117V7.89V1.89H119.5C119.5 1.89 124.7 1.89 124.7 7.65C124.7 13.41 121 13.28 119.51 13.28H119.52Z" fill="black"/>
<path d="M141.22 8.29V7.89V1.89H153.88V0.0299988H136.39V4.51V27.2H153.88V25.35H141.22V18.94V18.53H141.21V13.77H151.73V12.27H141.21V8.29H141.22Z" fill="black"/>
<path d="M208.47 0.0299988H190.98V4.51V27.2H195.81V18.12V14.13V13.77H203.91V12.27H195.81V11.91V10.89V1.89H208.47V0.0299988Z" fill="black"/>
<path d="M220.11 7.89V1.89H232.76V0.0299988H215.28V4.51V27.2H232.76V25.35H220.11V18.53H220.09V14.13H230.61V12.63H220.09V7.89H220.11Z" fill="black"/>
<path d="M182 24.06L172.34 14.72L173.46 14.57C176.35 13.76 178.91 11.8 178.91 7.64C178.88 0.0699997 170.63 0 166.25 0H161.63V27.2H166.36V15.2H166.42L175 23.52L178.71 27.19H185.25L182 24.06ZM172 12.65C171.071 13.1162 170.038 13.3333 169 13.28H166.47V1.92H169C169 1.92 174.2 1.92 174.2 7.68C174.2 10.57 173.27 11.99 172.12 12.68L172 12.65Z" fill="black"/>
<path d="M419.21 7.13L420.21 5.53C419.92 5 417.08 0.0800018 409.57 0.0800018C401.63 0.0800018 397 6.17 397 13.64C397 21.11 401.63 27.2 409.57 27.2C416.97 27.2 419.85 22.43 420.17 21.79L419.59 21.15C411.48 30.9 401 23.32 401 13.64C401 3.96 411.06 -2.66 419.21 7.13Z" fill="black"/>
<path d="M364.09 0.0299988H353.68H348.98H338.57V2.23H348.98V27.2H353.68V2.23H364.09V0.0299988Z" fill="black"/>
<path d="M332.12 13.51C331.51 13.12 330.23 12.41 328.12 11.3C326.091 10.366 324.216 9.12848 322.56 7.63C322.073 7.07793 321.806 6.36611 321.81 5.63C321.807 5.11849 321.929 4.61403 322.166 4.16077C322.404 3.7075 322.748 3.31926 323.17 3.03C323.623 2.65091 324.151 2.37151 324.72 2.21C325.16 2.11 330.61 1.05 332.19 6.38L334.11 5.38C334.11 5.38 333.47 0.130002 326.11 -0.0599976H325.73H325.17H325.09C323.425 0.0795328 321.842 0.721158 320.55 1.78C319.764 2.39755 319.136 3.19267 318.717 4.10008C318.298 5.0075 318.1 6.00133 318.14 7C318.158 8.0937 318.441 9.16676 318.963 10.1278C319.485 11.0889 320.232 11.9096 321.14 12.52C322.556 13.5514 324.058 14.4581 325.63 15.23C327.14 16.0043 328.599 16.8727 330 17.83C330.587 18.2008 331.076 18.7083 331.424 19.3091C331.772 19.91 331.97 20.5862 332 21.28C332.014 21.845 331.884 22.4042 331.621 22.9047C331.359 23.4052 330.973 23.8304 330.5 24.14C329.509 24.8265 328.325 25.177 327.12 25.14C325.842 25.1513 324.58 24.8564 323.44 24.28C322.312 23.7299 321.38 22.8468 320.77 21.75C320.455 21.1255 320.262 20.4468 320.2 19.75H318.42C318.552 21.1236 319.015 22.4448 319.77 23.6C320.496 24.728 321.502 25.648 322.69 26.27C323.557 26.6877 324.486 26.9645 325.44 27.09C326.125 27.1951 326.817 27.242 327.51 27.23C329.643 27.2684 331.723 26.5611 333.39 25.23C334.22 24.5973 334.889 23.7776 335.343 22.8375C335.796 21.8974 336.021 20.8636 336 19.82C335.996 18.7741 335.739 17.7447 335.25 16.82C334.497 15.4747 333.421 14.3374 332.12 13.51Z" fill="black"/>
<path d="M363.45 27.2H365.56H365.36L368.41 21.73H386.64L390.06 27.24H395.16L379.1 0L363.45 27.2ZM369.25 20.2L377.02 6.2L385.69 20.2H369.25Z" fill="black"/>
<path d="M445.98 21.64L435.88 11.87L448.02 0.0299988H444.83L432.24 12.28V0.0299988H427.4H427.16V27.2H427.42H432.24V14.54L441.53 23.53L445.23 27.2H451.77L445.98 21.64Z" fill="black"/>
</g>
<defs>
<clipPath id="clip0">
<path d="M0 0H451.77V27.2H0V0Z" fill="white"/>
</clipPath>
</defs>
</svg>
